<svg width="212" height="245" xmlns="http://www.w3.org/2000/svg">
  <g fill="none" fill-rule="evenodd">
    <g fill-rule="nonzero">
      <path d="M5.352 138.369l9.057.888c14.458 1.105 28.911 3.412 43.259 4.797.357-.581 1.056-.486 1.481-.081 1.432-.126 3.036-1.22 4.333-.082.042-.006.084-.013.127-.017 2.31-4.432 3.905-9.16 5.454-13.894.99-2.91 2.32-5.727 4.778-7.682 4.195-2.912 13.808-8.818 18.735-8.57.081-.882.492-1.791 1.168-2.379-1.488-2.537 4.461-4.192 4.88-3.898-.268-8.476 3.719-15.837 12.51-17.525 7.875-1.641 19.077-1.917 23.312 6.314.466-.052 5.225-.077 5.686-.025.716-.907 8.578 7.686 5.356 10.678 28.81 12.746 45.192 11.225 53.167 47.057 1.078 3.366 1.156 7.05 2.295 10.34 4.05 9.458 7.335 19.53 8.152 29.82 1.975.506 2.202 3.988-.085 4.492-.874.192-1.604.455-2.241.954.497 8.434-1.542 27.699-2.827 27.64-2.62 8.339-14.308 10.693-22.582 7.762 1.426 2.684 0 4.371 0 5.805-29.774 1.127-62.329.478-92.094 2.023-3.808-.054-7.812.935-11.568.366-2.29-.55-2.294-4.15.03-4.596l-10.152-2.205c.227-.086-4.184-3.02-7.518-8.503-3.103-6.134-.99-13.538-2.397-20.21-10.982-.899-22.146-1.283-33.008-3.143-1.48 4.432-7.892-.868-9.93-3l.008-.01c-.986-.27-1.777-1.194-1.803-2.288-.692-.989-.837-2.382-.174-3.337-3.04-17.542-7.674-35.454-9.35-53.161a3.748 3.748 0 01-1.622-.791l.038-.038c-.8-.893-.956-2.435.379-3.194 1.077-.613 1.977-.422 3.146-.307z" fill="#FFF"/>
      <path d="M120.17 204.026l-2.325 1.48-19.028 6.132-11.628 1.48-9.514-1.48v16.28l-1.903 15.224c.846 1.55 8.88 1.55 24.102 0 9.704-.988 45.169-1.468 53.243-1.679l.458-.012a481.537 481.537 0 0128.119 0v-5.71l-26.428-13.108-23.68-13.321-11.416-5.286zM133.653 94.91l-1.748 1.305 3.816 6.269-18.587 15.035v12.01l-5.884 5.566-3.364-5.566-4.74-6.304-3.367-10.217 1.147-6.732-2.307-.217c-.01.46-.009.924.006 1.392-.42-.294-6.37 1.361-4.881 3.898-.676.588-1.087 1.497-1.168 2.379-4.927-.248-14.54 5.658-18.735 8.57-2.458 1.955-3.789 4.772-4.778 7.682l-.232.71-.24.73-.243.728c-1.338 4.003-2.782 7.97-4.739 11.726-.043.004-.085.011-.127.017-1.297-1.138-2.901-.044-4.333.082-.415-.395-1.091-.496-1.456.042l-.025.04 17.838 3.513 11.768 41.282 10.248-8.319 5.5.818 14.527 5.24 16.895 4.389 38.57 10.634h4.911l28.581-6.902 2.576-.85c-.85-10.204-4.115-20.189-8.132-29.57-1.139-3.29-1.217-6.974-2.295-10.34-7.975-35.832-24.357-34.311-53.167-47.057 3.222-2.992-4.64-11.585-5.356-10.678l-.045-.004-.098-.006-.126-.004c-1.124-.033-4.999-.008-5.417.04-.242-.472-.507-.915-.793-1.331z" fill="#FFCF77"/>
      <path d="M2.5 139.622l.532 2.961c.126.042.255.077.385.105.167 1.766.363 3.533.584 5.302l3.295 18.36a970.982 970.982 0 011.643 9.76l.71 3.499.438 2.174c.949 4.708 1.87 9.4 2.68 14.067a2.308 2.308 0 00-.287.566l.063.263.043.176.044.173c.638 2.453 1.748 4.831 4.365 5.553 1.973.544 4.138.594 6.176.808l.226.025 35.658 4.01c4.309.485 8.615.984 12.921 1.488l3.733.438c5.203.603 10.436 1.077 15.563 2.168.188.04.344.115.472.214-1.033-3.908-2.02-7.811-2.916-11.759-1.009-4.442-1.965-8.894-3.043-13.321a494.348 494.348 0 00-7.273-26.562 417.274 417.274 0 00-1.717-5.52l-.41-1.282-.316-1.023c-.489-1.559-1.093-3.161-2.527-4.021-1.677-1.007-3.964-1.174-5.867-1.522l-1.288-.242a414.015 414.015 0 00-33.681-4.865 419.256 419.256 0 00-29.23-1.962l-.975-.031zm88.505 61.22l-.091.008 1.332 10.648c.213-.149.483-.24.813-.24 4.37.014 8.557-1.383 12.608-2.918l.617-.235 1.72-.661c1.748-.67 3.505-1.325 5.296-1.868l.723-.219.368-.109c1.356-.395 2.782-.755 4.192-.845l.192-.01-.41-.216a.95.95 0 01-.16-.104 9.295 9.295 0 01-2.373-.106 14.782 14.782 0 01-4.41-1.559l-.615-.332-.251-.134-.166-.086-.165-.083c-1.18-.589-2.31-.957-3.8-.644-1.693.356-3.176 1.268-4.701 2.039l-.27.135-.183.088-.186.087-.187.086c-2.063.928-5.346 1.93-6.137-.875-.318-1.127-.07-2.182.482-3.107-1.027-.09-2.863 1.122-4.238 1.26zm-51.35-35.083l-.024.128c-.292 1.57.44 3.073 1.546 4.168.909.898 2.516 1.397 2.97 2.69.26.734-.016 1.432-.548 1.918l.122.06.12.061.117.062.114.063.112.063c1.808 1.039 3.28 2.728 1.65 4.77-1.85 2.315-5.717 2.39-8.44 2.209l-.184-.013c-2.642-.198-5.77-1.086-7.203-3.525-.657-1.119-.584-2.472.331-3.43.553-.577 1.538-1.17 2.442-1.24-.04-.51.021-1.002.2-1.417.387-.897 1.418-1.5 2.412-1.523-.08-1.905 1.445-3.785 2.569-5.308l.114-.156.112-.154c.515-.717 1.618-.315 1.469.574zm-1.507 2.028l-1.023 3.834.017.031c.36.685-.584 1.462-1.145.887l-.056-.06c-.666-.688-1.687.236-1.7.967-.018 1.03.653 1.826 1.451 2.351l.056.037.147.091c.655.433.16 1.339-.561 1.229-.891-.137-1.622-.844-2.072-1.727-.481.138-1.029.122-1.536.405-1.277.714-.542 1.964.29 2.72l.033.03.068.058c1.525 1.302 3.603 1.753 5.56 1.85l.114.006c1.977.084 4.554.112 6.25-1.05 1.054-.725 1.36-1.752.467-2.724a70.563 70.563 0 00-1.54-1.64c-.785.375-1.486.223-2.29-.132-.102-.045-.045-.203.055-.203.444 0 2.07-.823 2.149-1.349.073-.486-.827-.896-1.264-1.131l-.064-.035-.055-.032a8.063 8.063 0 01-1.281-.962c-1-.92-1.725-2.074-2.042-3.336l-.028-.115z" fill="#FFF"/>
      <path d="M133.897 94.328c-.897-2.254-3.93-1.378-3.591.99.202 1.42.98 2.918 1.677 4.162.568 1.012 1.217 2 2.096 2.758a85.96 85.96 0 01-4.854 4.202 59.636 59.636 0 01-5.702 4.034c-1.732 1.083-3.542 2.042-5.175 3.277-1.517 1.149-2.9 2.53-3.604 4.333-.75 1.92-.423 3.902.129 5.82l.063.218c.564 1.9 1.54 4.192.186 5.983-.689.912-1.69 1.557-2.555 2.286a19.855 19.855 0 00-2.152 2.11c-1.443 1.649-2.617 3.505-3.357 5.573l-.067.188c-.634 1.831-1.098 4.074-.24 5.872.245.515 1.04.348 1.177-.154.312-1.137.295-2.327.557-3.48a13.12 13.12 0 011.315-3.413c1.143-2.083 2.692-3.862 4.521-5.367l.548-.445c1.427-1.171 2.738-2.414 3.028-4.352.31-2.074-.521-4.05-1.056-6.013-.372-1.368-.493-2.68-.091-3.916.491.803 1.162 1.564 1.693 2.244 1.056 1.353 2.122 2.698 3.186 4.046a95.892 95.892 0 013.167 4.226c.453.644.901 1.292 1.348 1.94.336.488.805.976 1.17 1.473-.088.266-.081.573.08.79 1.942 2.624 4.704-2.85 5.425-4.234 1.467-2.817 2.56-5.81 4.031-8.626a67.763 67.763 0 015.199-8.427c1.17-1.612 2.483-3.126 3.555-4.79 2.523 2.289 5.844 3.823 8.895 5.214 3.351 1.529 6.833 2.777 10.27 4.103l1.014.395c5.921 2.31 11.987 4.85 16.908 8.954 5.783 4.823 9.204 11.546 11.751 18.508 2.932 8.015 5.358 16.246 7.619 24.471a442.828 442.828 0 013.287 12.678c.91 3.736 1.663 7.51 2.716 11.208-2.135-.075-4.57.751-6.393.99-8.31 1.088-16.506 2.822-24.35 5.823-.97.371-1.25 1.339-1.038 2.123-.56-.157-1.118-.317-1.676-.474.612-.938.32-2.615.271-3.655l-.002-.072c-.05-1.385-.2-2.772-.298-4.155a152.847 152.847 0 00-.748-7.875l-.082-.656c-.364-2.851-.633-5.72-1.03-8.567l-.048-.326c.19-.728.413-1.448.645-2.164.62-1.908 1.496-3.705 2.263-5.553.091-.217-.219-.342-.364-.212-1.3 1.17-2.331 2.652-3.16 4.203l-.043-.22-.094-.465c-.234-1.136-.517-2.331-1.214-3.252-.074-.098-.221-.119-.291 0-.667 1.128-.742 2.557-.844 3.841-.116 1.453-.13 2.924-.11 4.38.04 2.847.24 5.702.4 8.544.157 2.792.465 5.55.862 8.315l.075.519c.194 1.316.353 2.648.609 3.956l.072.355c.137.649.221 1.563.493 2.322a1940.013 1940.013 0 00-21.053-5.74c-5.08-1.356-10.167-2.692-15.251-4.036a5.693 5.693 0 00-1.02-1.34c-1.373-1.33-3.194-1.923-4.863-.9-.136.084-.147.297 0 .378.32.175.64.354.955.54l-3.053-.826c-2.282-.619-4.59-1.391-6.926-1.823-4.302-2.123-8.929-3.66-13.46-5.178l-.534-.18c-2.32-.792-4.72-1.678-7.118-2.116-1.755-.321-3.815.066-4.52 1.864-.894.59-1.735 1.281-2.546 1.962-.587.492-1.149 1.015-1.72 1.524l-.106.092c-.467.406-.837.677-.952 1.323-.06.333.153.784.564.74 1.258-.135 2.28-1.593 3.134-2.464.66-.673 1.324-1.37 1.926-2.11.35.192.831.157 1.054-.266 1.158-2.192 4.33-.673 6.084-.153l2.514.744c1.257.373 2.513.747 3.768 1.128 3.447 1.047 6.877 2.219 10.355 3.18-.311.342-.268.95.323 1.182 2.722 1.069 5.71 1.621 8.538 2.354 1.786.463 3.57.93 5.355 1.398.306.496.526 1.057.618 1.71.34 2.4-.316 5.168-.955 7.49l-.097.346c-.526 1.866-1.3 4.154-2.91 5.332a2.855 2.855 0 01-1.397.533 10486.68 10486.68 0 00-9.456-4.864c-.585-.3-1.124.106-1.255.589a20.548 20.548 0 01-3.232-.813c-1.698-.577-3.023-1.676-4.615-2.437-3.08-1.471-6.224.336-8.982 1.71l-.635.312c-1.237.6-3.809 1.753-4.402.112-.574-1.587 1.24-3.284 2.412-3.999 1.397-.851 3.023-1.307 4.601-1.687a28.891 28.891 0 012.732-.523c1.04-.147 2.116-.125 3.118-.462.498-.168.575-.959 0-1.09-1.543-.35-3.384.032-4.994.424l-.842.207c-1.622.398-3.26.898-4.738 1.692-1.074.578-2.208 1.455-2.949 2.53-.643-.598-1.444-.578-2.278-.357l-.453.126c-.747.208-1.353.35-2.08.207-.098-.53-.197-1.06-.302-1.589a379.01 379.01 0 00-3.428-15.545 366.5 366.5 0 00-7.49-26.399l-.283-.87c-.65-1.992-1.175-4.162-2.224-5.991-.993-1.73-2.583-2.727-4.473-3.254-2.144-.6-4.397-.913-6.584-1.317-.488-.09-.977-.176-1.466-.264.413-.746.72-1.592.998-2.24l.05-.113a77.52 77.52 0 001.648-4.134l.387-1.046c.933-2.519 1.897-4.996 3.21-7.351 1.382-2.479 3.215-4.506 5.5-6.183 4.66-3.42 10.276-5.165 14.795-8.82.185-.15-.052-.406-.24-.31-3.052 1.532-6.346 2.575-9.52 3.823l-.626.247c-2.509.995-5.056 2.078-7.227 3.688-2.421 1.795-4.328 4.025-5.76 6.677-1.413 2.614-2.317 5.54-3.313 8.331l-.266.744a52.965 52.965 0 01-1.293 3.313c-.378.862-1.082 1.846-1.403 2.83-.876-.152-1.752-.304-2.63-.45a421.482 421.482 0 00-57.466-5.582c-.753-.022-1.143.697-1.032 1.354 1.848 10.928 3.49 21.892 5.292 32.828a2007.21 2007.21 0 002.41 14.309c.415 2.415.896 4.82 1.29 7.24.318 1.952.549 3.92 1.095 5.829.49 1.71 1.24 3.36 2.475 4.666 1.33 1.406 3.187 2.087 5.056 2.41 4.744.816 9.61 1.15 14.394 1.693l25.465 2.898c-.373 3.382-.4 6.712-.23 10.135l.098 1.868c.08 1.502.174 3.007.39 4.494.27 1.866 1.124 3.446 2.381 4.839 1.154 1.28 2.556 2.371 3.92 3.418 1.416 1.086 2.879 2.134 4.543 2.806l.216.086c1.46.57 4.2 1.453 6.196 1.13-.261 1.308-.766 2.713-.319 4.007.208.6.994.9 1.475.39.953-1.014 1.027-2.352 1.253-3.673.235-1.375.438-2.756.618-4.139.348-2.675.618-5.374.701-8.072.085-2.77.052-5.544-.097-8.311-.077-1.422-.172-2.842-.352-4.254a85.276 85.276 0 00-.246-1.805c-.032-.22-.069-.437-.108-.655l2.286.258c3.504.391 7.01.745 10.54.8.418.006.74-.184.95-.462.224.365.614.626 1.172.624 4.929-.018 9.519-1.63 14.002-3.53 2.26-.958 4.484-1.994 6.747-2.944 2.112-.886 4.37-1.519 6.432-2.517l5.416 2.841c.04.14.091.272.145.383.353.72 1.048 1.11 1.758 1.404.682.283 1.388.371 2.076.3 4.108 2.152 8.217 4.303 12.328 6.449l4.113 2.144c8.194 4.267 16.355 8.603 24.6 12.77l.607.305c2.848 1.428 5.907 2.876 9.067 3.956.056.8.02 1.579-.046 2.425l-.016.185c-.095 1-.297 2.254.506 2.967.418.37 1.164.372 1.448-.187.515-1.013.052-2.61-.111-3.71a10.597 10.597 0 00-.233-1.184c3.623 1.078 7.356 1.601 11.044.996 3.59-.59 6.37-2.851 8.611-5.618a25.565 25.565 0 004.949-9.969c1.026-4.15 1.093-8.435 1.07-12.686-.026-4.527-.194-9.076-.744-13.572.603-.142 1.272-.265 1.881-.223.302.483.888.687 1.417.624 1.15 1.27-1.768 2.567-2.7 2.891-.325.113-.29.64.083.623l.236-.01c1.441-.077 2.93-.324 3.778-1.663.679-1.074.475-2.346-.335-3.221-.535-5.056-1.813-9.98-3.002-14.912a344.587 344.587 0 00-3.842-14.436l-.617-2.142c-2.167-7.503-4.432-15.068-7.42-22.273-1.493-3.598-3.212-7.13-5.543-10.267-2.172-2.924-4.737-5.426-7.685-7.564-5.496-3.984-11.945-6.392-18.28-8.686l-.284-.102c-3.284-1.188-6.56-2.39-9.806-3.677-2.87-1.138-5.62-2.582-8.478-3.737.093-.168.182-.339.268-.511l.053.044a.46.46 0 00.028.021c.288.2.71.101.947-.122.669-.631.443-1.332-.004-1.986l-.058-.083c-.546-.765-1.033-1.573-1.536-2.366l-.316-.495c-.846-1.324-1.734-2.657-2.862-3.751a6.15 6.15 0 00-1.7-1.17c.052-.109-.402-.333-.53-.22-1.92-.703-4.127-.555-6.22-.362M58.9 210.82l2.668.303c2.935.334 5.872.657 8.809.977l6.379.693c.016.364.06.72.068.994.042 1.416.073 2.833.102 4.25a98.36 98.36 0 01-.192 8.514c-.181 2.746-.42 5.492-.79 8.22l-.077.544-.044.287c-.302.03-.6.173-.847.468-.54.645-2.493.018-3.256-.253-1.255-.447-2.436-1.201-3.527-1.958-1.064-.738-2.023-1.6-2.944-2.507l-.754-.746c-.75-.745-1.5-1.539-1.96-2.476-.623-1.271-.704-2.832-.887-4.216a151.003 151.003 0 00-.775-5.1m75.482-25.87l.276.073c10.054 2.671 20.092 5.422 30.176 7.975 4.99 1.264 10.004 2.436 15 3.676l.81.202c3.942.997 7.93 2.196 10.95 5.055.11.105.272-.056.167-.168-3.253-3.464-7.88-4.93-12.322-6.2-.821-.236-1.643-.465-2.465-.699 6.042-2.154 12.179-4.028 18.457-5.364 1.617-.344 3.253-.597 4.868-.942 1.127-.242 2.227-.59 3.342-.88l.877-.22.011 2.772c.015 3.925.008 7.847-.192 11.772l-.038.727c-.234 4.368-.599 8.826-2.148 12.945-1.26 3.346-3.267 6.5-5.893 8.937-1.328 1.233-2.756 2.193-4.521 2.667-1.64.44-3.357.492-5.042.374-8.082-.563-15.277-4.954-22.298-8.59a19578.437 19578.437 0 00-34.464-17.813c.311-.212.604-.457.87-.732 1.541-1.592 2.354-3.772 2.888-5.883.569-2.246.909-4.654.948-6.974m-14.884 15.885a.15.15 0 00-.224.128c-.035.878.45 1.744.812 2.535l.039.084c.44.98.922 1.947 1.421 2.898a143.178 143.178 0 003.114 5.636c2.174 3.73 4.59 7.303 7.446 10.55.645.734 1.706-.206 1.292-.996-1.995-3.808-4.322-7.404-6.717-10.968-1.199-1.784-2.397-3.57-3.608-5.347a98.476 98.476 0 00-1.542-2.207l-.317-.435M2.495 139.633c10.089.304 20.165.962 30.206 1.993a414.015 414.015 0 0133.68 4.865l1.157.217c1.928.366 4.283.516 6 1.546 1.809 1.086 2.298 3.355 2.9 5.226.708 2.201 1.397 4.408 2.069 6.62a494.347 494.347 0 017.272 26.562c1.079 4.427 2.035 8.879 3.043 13.322.896 3.947 1.884 7.85 2.916 11.758a1.148 1.148 0 00-.471-.214c-5.127-1.09-10.36-1.565-15.563-2.167l-.503-.06a3184.445 3184.445 0 00-16.151-1.866l-35.658-4.01c-2.103-.237-4.356-.27-6.402-.833-3.48-.96-4.296-4.85-4.88-7.949l-.017-.094c-1.76-9.36-3.161-18.803-4.803-28.188m83.619 34.5c1.384-.092 3.279-1.36 4.33-1.269-.552.925-.801 1.98-.483 3.108.884 3.136 4.883 1.513 6.81.555 1.58-.786 3.105-1.747 4.853-2.116 1.981-.416 3.323.372 4.997 1.28a14.782 14.782 0 004.411 1.558 9.295 9.295 0 002.373.106.95.95 0 00.159.105l.41.215c-1.856.085-3.747.658-5.475 1.183-1.79.543-3.547 1.198-5.296 1.868l-1.72.661c-4.242 1.625-8.633 3.168-13.224 3.154-.33 0-.6.09-.813.24m6.413-20.475c-1.368-.167-2.63.012-3.723.903-1.318 1.073-2.203 2.854-4.098 2.97-.552.035-.68.812-.132.974 1.41.418 2.553-.345 3.514-1.336l.646-.675c.95-.984 1.825-1.744 3.436-1.685 1.726.063 3.454.462 5.169.665 1.942.23 3.884.425 5.832.594.09.008.106-.135.021-.156l-2.182-.543m-7.163-7.303l-.225-.022c-1.986-.193-3.803-.2-5.576.868l-.34.206c-1.6.972-3.34 2.117-4.34 3.69-.164.259.107.562.38.496 1.922-.461 3.327-1.872 4.944-2.927 1.814-1.185 3.688-.99 5.756-.805a77.42 77.42 0 015.987.757c1.863.313 3.732.808 5.614.965v-.003c.215 0 .338-.324.118-.433-1.91-.954-4.122-1.405-6.2-1.841m61.888-54.959c.003-.157-.218-.216-.295-.08-1.292 2.274-1.968 5.06-2.656 7.566-.721 2.624-1.303 5.274-1.826 7.944-1.06 5.407-1.623 10.783-1.662 16.293-.005.787 1.277.996 1.402.19.832-5.36 1.63-10.726 2.469-16.085.422-2.695.913-5.38 1.383-8.067m-11.607-3.8c.095-.314-.361-.42-.478-.132-2.593 6.366-3.472 13.58-1.807 20.297.255 1.027 1.76.582 1.568-.432m-32.734-25.39c.013-.235-.291-.272-.406-.11-1.229 1.73-1.739 4.05-3.894 4.944-1.077.447-2.288.37-3.239 1.124-.636.505-1.123 1.301-.646 2.066.154.247.585.37.794.102.304-.39.466-.859.88-1.152.584-.413 1.372-.439 2.042-.633a4.99 4.99 0 002.255-1.344m-18.314-33.877c-.127-.064-.248-.023-.33.087-.115.156-.1.308.04.415-.188.386-.412 1.355-.444 1.496a68.25 68.25 0 01-.41 1.708c-.291 1.145-.546 2.3-.837 3.445a44.955 44.955 0 01-1.084 3.6 7.218 7.218 0 01-.086.235l-.046.12-.012-.018c-.083-.131-.256-.04-.235.1.019.126.045.251.066.378l-.043.113c-.267.72-.45 1.478.04 2.112.184.238.386.379.637.42.404 1.33.91 2.636 1.452 3.889l.159.366c.797 1.829 1.647 3.634 2.916 5.191 1.386 1.7 3.291 2.86 4.498 4.723.562.867.953 1.778 1.27 2.757l.12.371c.224.692.484 1.363 1.133 1.769.207.13.518.088.685-.088 1.331-1.409-.063-4.039-.865-5.402-1.116-1.896-2.731-3.11-4.348-4.54-1.744-1.542-2.855-3.605-3.931-5.637-.659-1.245-1.295-2.517-1.964-3.767.7-.618.923-1.847 1.16-2.7l.022-.077c.392-1.367.703-2.77.9-4.179.189-1.354.268-2.69.217-4.052l-.014-.346m-3.267 3.959c.154-.212-.101-.452-.314-.408-1.289.267-2.55 1.047-3.706 1.678l-.124.067c-.924.498-1.853 1.108-2.338 2.076-.528 1.052-.484 2.263-.412 3.407l.007.106c.088 1.371.102 2.795.392 4.141.148.69.772.883 1.306.72.634 2.005 2.417 3.482 3.72 5.063 1.66 2.016 1.348 4.739 1.174 7.167-.07.983 1.153 1.263 1.783.738l1.451-1.206c.242-.2.483-.402.724-.605.206-.173.41-.348.613-.525l.303-.267c.134-.12.726-.782.9-.81.419-.066 1.415 1.04 1.756 1.386l.043.043c.642.63 1.222 1.307 1.762 2.025.1.132.294.022.223-.13a18.23 18.23 0 00-1.715-2.956l-.135-.185c-.445-.6-1.042-1.657-1.826-1.834-.959-.216-1.916.745-2.613 1.278l-.044.034c-.332.249-.66.502-.987.757.034-1.808-.194-3.635-1.127-5.193-.658-1.099-1.645-1.913-2.488-2.857-.94-1.051-1.43-2.344-2.28-3.439a.642.642 0 00-.424-.24c-.033-.881-.163-1.77-.263-2.64l-.029-.262c-.101-.946-.34-2.101.123-2.988.437-.837 1.441-1.427 2.185-1.995l.607-.471M140.45 97.3c.388.224.751.504 1.08.853 1.036 1.099 1.777 2.467 2.498 3.783.388.709.762 1.425 1.154 2.132.17.308.345.612.522.916.082.14.325.418.445.59-.133.187-.272.372-.413.555-.054.07-3.77 4.119-5.067 5.704-1.984 2.427-3.757 4.991-5.273 7.736-1.485 2.687-2.615 5.533-3.99 8.272-.689 1.372-1.457 2.734-2.437 3.921-.038.046-.078.09-.117.136-.374-1.01-1.332-2.093-1.803-2.714l-.044-.058a89.42 89.42 0 00-3.346-4.207 113.003 113.003 0 00-3.236-3.684l-.415-.452c-.77-.831-1.748-2.075-2.875-2.67.12-.215.26-.428.421-.638 1.056-1.38 2.549-2.381 4.021-3.285l.955-.58c3.6-2.195 7.144-4.49 10.27-7.341 1.653-1.509 3.284-3.089 4.674-4.848l.491-.622m-3.522-4.585c1.686.141 3.507.107 5.064.657-1.385 1.31-2.701 2.723-4.054 4.054-.12-.9-.366-1.79-.574-2.668" fill="#000"/>
    </g>
    <g fill-rule="nonzero">
      <path d="M80.086 56.973c.084-4.74.177-9.575.88-14.27.687-4.588 2.577-8.737 5.825-12.069 6.898-7.079 16.897-8.808 26.205-10.392l15.914-2.71c4.855-.825 10.034-2.146 14.94-.974 2.417.577 4.47 1.919 6.345 3.506 1.809 1.53 3.753 3.173 4.978 5.23 1.227 2.062 1.65 4.471 2.049 6.803.45 2.628.8 5.277 1.048 7.932.498 5.32.565 10.679.204 16.01a111.05 111.05 0 01-1.408 11.537c-.067.373-.117.786-.185 1.204.502 1.431.787 2.914.764 4.39-.068 4.35-3.728 7.087-7.418 8.557-2.14.852-4.376 1.431-6.479 2.384-2.211 1.001-3.716 2.625-5.228 4.477-2.884 3.532-6.138 6.707-9.854 9.356-7.879 5.616-17.858 8.272-27.417 6.256-2.294-.484-4.608-1.235-6.67-2.367-2.176-1.195-3.813-2.926-5.187-4.973-2.552-3.8-4.383-8.08-5.767-12.435-1.412-4.443-2.415-8.893-2.962-13.525-.544-4.617-.66-9.281-.577-13.927z" fill="#FFF"/>
      <path d="M130.869 1.02c-6.586-.908-15.675 2.045-18.955 7.998-15.658-3.702-35.406-3.823-48.311 8.5-13.466 14.617 3.448 33.89 14.663 38.236-.816 3.98.457 29.474 9.466 40.846 7.15 9.635 23.799 14.082 31.503 2.573l.06-.095c.826-1.329.115-1.286-.732-.297-7.545 6.653-17.802 6.766-25.707-.255-14.814-12.833-13.286-44.3-6.237-62.504 20.073-2.21 41.564 3.89 55.428 19.042l-.937 5.66c-.16.965-.341 1.928-.48 2.896-.088.62-.098 1.236.33 1.738 1.414 1.657 3.798-.833 5.76-1.823a8.239 8.239 0 011.727-.073c9.423 1.217 7.567 19.548-2.79 16.335-.87-.544-1.618-.378-1.955.41-2.469 2.268-4.096 6.312-8.198 10.207-1.447 1.462-2.764 2.684-4.391 3.856-.956.97-3.841 1.958-2.927 3.617 1.73 3.776 11.928-8.083 13.73-11.363 5.65 2.237 11.91 1.477 17.765.93 30.884-1.61 26.761-34.257 1.446-54.87-4.765-3.517-10.023-6.387-15.488-8.596-.746-.301-.42-1.53.336-1.224a75.486 75.486 0 0110.502 5.214l.005-1.203c.005-2.028-.026-4.138-.378-5.99-.175-1.284-.47-2.655-.925-3.687-.562-3.161-9.364-14.015-24.31-16.077zm17.99 66.65c-.476-.454-1.367.088-1.791.074-1.086.15-2.117.609-2.922 1.176a7.863 7.863 0 00-1.214.837l-.008-.003c.002 0 .005.003.008.003l-.03.02c-.453.323-2.11 2.14-1.063 1.652.078-.102.158-.2.239-.296.008.013.02.026.035.039l-.06.087c-.89 1.343.648-.072.884-.447.011.009.024.015.036.021l-.308.376a10.23 10.23 0 00-.105.132l-.065.063c-1.029 1.015-1.061 1.928.135.428a.486.486 0 00-.09.212l-.071.09c-.94 1.213-.175.783.291.264l.04-.044-.009.012c-.434.67.427.2.58-.159l.006-.016c.166-.136.268-.288.303-.326l.006-.007c.808-.83 1.978-1.531 2.972-1.85.144-.027.29-.05.437-.065a13.169 13.169 0 011.813-.275c.074-.009.15-.064.207-.135.923-.031.638-.41.255-.481l-.007-.001.076-.007c.593-.058.998-.271.398-.402l-.076-.015a.784.784 0 00.026-.044c.513-.056.178-.557-.107-.436.12-.392-.427-.196-.496-.255-.052-.058-.117-.109-.154-.112-.165-.116-.085-.106-.17-.11zm-3.14-6.361l.12.07c.098.057.198.095.299.117-.142.06-.282.126-.42.196.001-.086.003-.17.003-.256l-.001-.127z" fill="#000"/>
    </g>
    <path d="M98.755 87.209c1.553.452 3.22.492 4.804.026 1.436-.424 2.91-1.355 3.967-2.587.939-1.094 1.547-2.425 1.523-3.844a.629.629 0 00-.15-.403.698.698 0 00-.372-.224.68.68 0 00-.435.038.577.577 0 00-.287.283c-.162.214-.324.425-.486.63-1.306 1.62-2.571 2.83-4.535 3.263a5.502 5.502 0 01-3.106-.228 6.652 6.652 0 01-2.73-1.926c-.335-.391-.73-.55-1.116-.554-.437-.003-.87.202-1.196.528-.32.32-.535.757-.554 1.213-.017.4.113.818.459 1.191a9.33 9.33 0 004.214 2.594zm.048-20.279c-1.592.972-4.018 3.238-2.305 5.647 2.016 2.124 4.919-.311 6.349-1.413 1.326-.853 2.817 1.342 1.586 2.339-10.336 7.683-14.53-6.318-6.435-7.715.891-.154 1.222.842.805 1.142zm14.893-4.275c.512-.329 1.114-.442 1.781-.137.522.238 1.436 1.032 2.072 2.075.436.714.744 1.55.68 2.423a.55.55 0 00.177.462.688.688 0 00.385.172.995.995 0 00.405-.037.603.603 0 00.4-.346c.446-1.188.254-2.514-.246-3.71-.674-1.615-1.897-2.967-2.7-3.403-1.371-.746-2.99-.78-4.364-.02-1.17.647-1.9 1.692-2.628 2.757-.155.226-.308.45-.467.671-.318.443-.35.881-.226 1.258.136.416.484.768.919.952.402.17.868.194 1.28.02.35-.148.67-.436.872-.925.34-.822.909-1.73 1.66-2.212zm-25.988 1.83c.35.183.624.238 1.013.121a1.44 1.44 0 00.594-.356c.165-.165.284-.371.33-.6.114-.563.42-1.09.858-1.435.374-.293.847-.45 1.37-.361.565.094 1.104.458 1.475.887.124.144.22.307.318.469.183.303.36.584.613.807a.569.569 0 00.548.117c.562-.567.67-.997.652-1.424-.019-.447-.195-.9-.478-1.322-.666-.992-1.93-1.804-2.783-1.988-1.168-.252-2.328.05-3.258.705-.957.674-1.667 1.72-1.888 2.9-.053.284-.03.59.077.857.106.26.29.482.559.623zm23.412-12.397c.701.685 1.53.792 2.37.886.467.053.839.096 1.205.179 1.007.228 2.003.572 2.911 1.067.95.517 1.984 1.142 2.728 1.941.177.19.344.39.511.59.152.183.3.358.454.528.177.194.346.398.514.601.104.172.124.214.145.258.031.066.068.14.11.22.057.108.124.227.194.334.117.197.18.252.234.276.09.04.175.06.257.05a.431.431 0 00.223-.11c.36-.305.466-.806.455-1.338-.016-.807-.313-1.7-.586-2.25-.636-1.276-1.517-2.603-2.577-3.556-1.21-1.088-2.533-1.91-4.052-2.478-.945-.353-2.038-.676-3.067-.636-.74.03-1.448.25-2.031.803-.359.339-.531.82-.531 1.302 0 .492.179.986.533 1.333zm-24.838 6.28a.385.385 0 00.175.154.403.403 0 00.554-.276c.465-2.052 1.369-3.58 3.298-4.564.948-.485 2.04-.792 3.072-1.038.3-.071.618-.117.937-.164 1.001-.147 2.01-.315 2.662-1.127.393-.49.558-1.116.465-1.688a1.794 1.794 0 00-.972-1.33c-1.42-.736-3.183-.013-4.617.603l-.312.134c-1.402.594-2.68 1.378-3.732 2.5-.833.89-1.606 2.205-1.917 3.558-.259 1.125-.198 2.275.387 3.237z" fill="#000"/>
    <path d="M79.703 68.119c2.569 2.645 6.857 3.403 10.275 1.985 8.776-3.653 4.48-15.047-2.288-18.107-.845-.21-1.974-.709-3.004-.822-.093-.045-.296.087-.542-.038-7.462.83-9.162 12.373-4.441 16.982m28.306.677c2.88 3.807 8.237 4.982 12.614 3.212 8.646-3.392 5.579-13.496-.336-17.458-12.496-4.678-17.656 7.226-12.278 14.246m18.742-8.436l.024-.01a15.85 15.85 0 01-.137-.06l.046.115c.022-.016.042-.033.067-.045m-52.996-4.116c.705.001 1.724.117 2.308.604 1.44-4.838 6.756-9.317 11.379-6.051 3.64 1.166 6.341 3.753 7.876 7.192 2.769-1.64 7.121-.94 9.522 1.23 1.572-5.176 5.441-6.988 10.046-7.256 5.027-.82 10.037 4.044 11.6 7.945 1.3-.147 3.242-.56 4.464.24 7.936-2.073 21.811-3.217 23.425-2.065 1.15.44 1.78 3.144.174 3.29-1.4-.198.164-1.982-1.247-2.176-7.516-.464-14.813 1.044-22.25 1.677-.663.89-2.809 1.187-3.953.83 1.802 6.618-2.089 11.121-7.919 12.47-9.028 2.066-16.882-5.98-14.521-14.35-2.735-1.355-5.88-1.297-8.86-.583 4.978 18.255-24.529 17.436-19.92-1.767-3.067 1.52-3.733-.923-2.124-1.23" fill="#000"/>
  </g>
</svg>
